<svg width="176" height="174" viewBox="0 0 176 174" fill="none" xmlns="http://www.w3.org/2000/svg">
<path d="M150.418 88.9192C150.679 88.6566 150.88 88.3404 151.006 87.9927C151.132 87.645 151.18 87.2742 151.147 86.9061H89.8968C89.593 86.9063 89.2963 86.8144 89.0464 86.6426C88.7965 86.4708 88.6052 86.2273 88.4981 85.9447C88.4307 85.7767 88.3955 85.5976 88.3945 85.4167V24.6865C88.0587 24.6859 87.726 24.7511 87.4156 24.8785C87.1052 25.0059 86.8231 25.193 86.5856 25.4291L26.3282 85.318C26.0657 85.5799 25.8643 85.896 25.7382 86.2438C25.6121 86.5917 25.5645 86.9628 25.5986 87.331H86.495C86.6921 87.331 86.8872 87.3697 87.0692 87.4448C87.2513 87.52 87.4166 87.63 87.5558 87.7688C87.6949 87.9076 87.8052 88.0723 87.8802 88.2534C87.9552 88.4346 87.9936 88.6288 87.993 88.8247V149.516C88.3881 149.578 88.7923 149.546 89.1726 149.423C89.5529 149.299 89.8986 149.089 90.1817 148.808L150.418 88.9192Z" fill="#0166B1"/>
<path d="M175.129 85.2016L90.1822 0.744139C89.7022 0.267633 89.0516 0 88.3733 0C87.695 0 87.0445 0.267633 86.5645 0.744139L1.6178 85.2016C1.37984 85.4379 1.19107 85.7186 1.06227 86.0276C0.933476 86.3365 0.867188 86.6677 0.867188 87.0021C0.867188 87.3366 0.933476 87.6678 1.06227 87.9767C1.19107 88.2857 1.37984 88.5663 1.6178 88.8027L86.5645 173.256C87.0445 173.732 87.695 174 88.3733 174C89.0516 174 89.7022 173.732 90.1822 173.256L175.129 88.8027C175.602 88.3215 175.867 87.6752 175.867 87.0021C175.867 86.3291 175.602 85.6828 175.129 85.2016ZM87.9934 149.4C87.4528 149.323 86.9516 149.075 86.5645 148.692L26.3286 88.8027C25.8553 88.3215 25.5903 87.6752 25.5903 87.0021C25.5903 86.3291 25.8553 85.6828 26.3286 85.2016L86.5645 25.3126C86.802 25.0766 87.0841 24.8895 87.3945 24.7621C87.7049 24.6347 88.0375 24.5694 88.3733 24.5701C88.4424 24.5701 88.5115 24.5701 88.5762 24.5701C89.1812 24.6147 89.7504 24.8719 90.1822 25.2955L150.418 85.2016C150.891 85.6828 151.156 86.3291 151.156 87.0021C151.156 87.6752 150.891 88.3215 150.418 88.8027L90.1822 148.692C89.8991 148.973 89.5533 149.183 89.173 149.306C88.7927 149.429 88.3886 149.461 87.9934 149.4Z" fill="black"/>
</svg>
